<svg width="694" height="244" viewBox="0 0 694 244" fill="none" xmlns="http://www.w3.org/2000/svg">
<g clip-path="url(#clip0_316_940)">
<path d="M104.59 78.9343L104 162.466L66.6967 170.511L70.1988 67.8806L130.619 87.2934L140.555 90.3027" stroke="#291D89" stroke-width="3.70912" stroke-miterlimit="10"/>
<path d="M68.428 119.845L119.641 121.595" stroke="#291D89" stroke-width="3.70912" stroke-miterlimit="10"/>
<path d="M96.0905 65.9531L142.168 61.0164L139.237 104.248" stroke="#291D89" stroke-width="3.70912" stroke-miterlimit="10"/>
<path d="M141.106 80.3702L131.682 77.4592L59.5744 53.6407L55.0886 185.282L99.9466 172.517L136.64 183.217L137.859 161.05L137.958 159.142" stroke="#291D89" stroke-width="3.70912" stroke-miterlimit="10"/>
<path d="M149.959 159.142L147.736 199.404L83.8135 180.306L78.8555 178.516" stroke="#291D89" stroke-width="3.70912" stroke-miterlimit="10"/>
<path d="M68.4476 56.5712L90.7979 53.5226L156.235 45.2422L153.776 104.503" stroke="#291D89" stroke-width="3.70912" stroke-miterlimit="10"/>
<path d="M133.789 150.234C132.435 150.234 131.337 149.923 130.495 149.301C129.653 148.642 128.994 147.635 128.518 146.281L117.812 116.468C117.226 114.821 117.318 113.43 118.086 112.295C118.891 111.124 120.301 110.538 122.314 110.538C123.668 110.538 124.73 110.868 125.498 111.526C126.267 112.149 126.871 113.137 127.31 114.491L135.491 139.034H132.911L141.695 114.491C142.208 113.137 142.848 112.149 143.617 111.526C144.386 110.868 145.374 110.538 146.582 110.538C147.79 110.538 148.76 110.868 149.492 111.526C150.224 112.149 150.828 113.155 151.304 114.546L159.539 139.034H157.343L165.744 114.491C166.183 113.137 166.769 112.149 167.501 111.526C168.269 110.868 169.331 110.538 170.685 110.538C172.369 110.538 173.595 111.124 174.364 112.295C175.169 113.43 175.26 114.821 174.638 116.468L163.822 146.336C163.346 147.654 162.687 148.642 161.845 149.301C161.04 149.923 159.96 150.234 158.606 150.234C157.215 150.234 156.099 149.923 155.257 149.301C154.452 148.642 153.811 147.635 153.335 146.281L145.594 124.539H146.966L139.06 146.336C138.547 147.654 137.889 148.642 137.083 149.301C136.278 149.923 135.18 150.234 133.789 150.234ZM187.259 150.234C185.722 150.234 184.533 149.777 183.691 148.862C182.849 147.947 182.428 146.629 182.428 144.909V127.559C182.428 125.838 182.849 124.521 183.691 123.605C184.533 122.69 185.722 122.233 187.259 122.233C188.833 122.233 190.041 122.69 190.883 123.605C191.762 124.521 192.201 125.838 192.201 127.559V144.909C192.201 146.629 191.78 147.947 190.938 148.862C190.096 149.777 188.87 150.234 187.259 150.234ZM187.259 118.335C185.539 118.335 184.203 117.932 183.251 117.127C182.336 116.321 181.879 115.15 181.879 113.613C181.879 112.112 182.336 110.959 183.251 110.154C184.203 109.348 185.539 108.946 187.259 108.946C189.053 108.946 190.407 109.348 191.322 110.154C192.237 110.959 192.695 112.112 192.695 113.613C192.695 115.15 192.237 116.321 191.322 117.127C190.407 117.932 189.053 118.335 187.259 118.335ZM202.701 150.234C201.164 150.234 199.975 149.813 199.133 148.972C198.291 148.13 197.87 146.903 197.87 145.293V127.119C197.87 125.545 198.272 124.338 199.078 123.496C199.92 122.654 201.109 122.233 202.647 122.233C204.184 122.233 205.355 122.654 206.16 123.496C206.966 124.338 207.368 125.545 207.368 127.119V129.7L206.764 127.449C207.643 125.728 208.887 124.411 210.498 123.496C212.145 122.581 214.012 122.123 216.098 122.123C218.258 122.123 220.033 122.544 221.424 123.386C222.815 124.191 223.858 125.472 224.554 127.229C225.249 128.95 225.597 131.127 225.597 133.763V145.293C225.597 146.903 225.176 148.13 224.334 148.972C223.492 149.813 222.284 150.234 220.71 150.234C219.136 150.234 217.928 149.813 217.087 148.972C216.245 148.13 215.824 146.903 215.824 145.293V134.147C215.824 132.5 215.531 131.329 214.945 130.633C214.396 129.938 213.573 129.59 212.475 129.59C211.01 129.59 209.839 130.066 208.961 131.018C208.082 131.933 207.643 133.177 207.643 134.751V145.293C207.643 148.587 205.996 150.234 202.701 150.234ZM241.708 150.344C239.402 150.344 237.353 149.777 235.559 148.642C233.802 147.507 232.411 145.879 231.386 143.756C230.398 141.633 229.904 139.125 229.904 136.234C229.904 133.269 230.398 130.743 231.386 128.657C232.411 126.57 233.802 124.96 235.559 123.825C237.353 122.69 239.402 122.123 241.708 122.123C243.722 122.123 245.533 122.599 247.144 123.551C248.754 124.502 249.834 125.728 250.383 127.229H249.779V115.48C249.779 113.869 250.2 112.643 251.042 111.801C251.884 110.959 253.092 110.538 254.666 110.538C256.203 110.538 257.393 110.959 258.235 111.801C259.113 112.643 259.552 113.869 259.552 115.48V145.293C259.552 146.903 259.131 148.13 258.29 148.972C257.484 149.813 256.295 150.234 254.721 150.234C253.183 150.234 251.994 149.813 251.152 148.972C250.31 148.13 249.889 146.903 249.889 145.293V142.163L250.493 144.854C249.981 146.501 248.901 147.837 247.254 148.862C245.643 149.85 243.795 150.344 241.708 150.344ZM244.838 143.152C245.826 143.152 246.705 142.914 247.473 142.438C248.242 141.925 248.828 141.175 249.23 140.187C249.67 139.162 249.889 137.844 249.889 136.234C249.889 133.781 249.413 132.024 248.462 130.963C247.51 129.865 246.302 129.316 244.838 129.316C243.85 129.316 242.971 129.553 242.202 130.029C241.434 130.505 240.83 131.256 240.391 132.28C239.951 133.269 239.732 134.586 239.732 136.234C239.732 138.649 240.208 140.406 241.159 141.504C242.111 142.603 243.337 143.152 244.838 143.152ZM278.885 150.344C275.884 150.344 273.267 149.777 271.034 148.642C268.801 147.507 267.063 145.879 265.818 143.756C264.574 141.633 263.951 139.125 263.951 136.234C263.951 134.037 264.299 132.079 264.994 130.359C265.69 128.602 266.696 127.119 268.014 125.911C269.332 124.667 270.906 123.734 272.736 123.111C274.566 122.452 276.616 122.123 278.885 122.123C281.887 122.123 284.504 122.69 286.737 123.825C288.97 124.96 290.69 126.589 291.898 128.712C293.142 130.798 293.765 133.305 293.765 136.234C293.765 138.393 293.417 140.351 292.721 142.108C292.026 143.865 291.019 145.366 289.702 146.611C288.421 147.819 286.847 148.752 284.98 149.411C283.15 150.033 281.118 150.344 278.885 150.344ZM278.885 143.152C279.874 143.152 280.752 142.914 281.521 142.438C282.289 141.925 282.875 141.175 283.278 140.187C283.717 139.162 283.937 137.844 283.937 136.234C283.937 133.781 283.461 132.024 282.509 130.963C281.557 129.865 280.35 129.316 278.885 129.316C277.897 129.316 277.019 129.553 276.25 130.029C275.481 130.505 274.877 131.256 274.438 132.28C273.999 133.269 273.779 134.586 273.779 136.234C273.779 138.649 274.255 140.406 275.207 141.504C276.158 142.603 277.385 143.152 278.885 143.152ZM309.295 150.234C308.051 150.234 306.971 149.941 306.056 149.356C305.141 148.734 304.409 147.782 303.86 146.501L296.393 128.437C295.917 127.302 295.752 126.277 295.899 125.362C296.045 124.411 296.484 123.66 297.216 123.111C297.985 122.526 299.028 122.233 300.346 122.233C301.481 122.233 302.414 122.507 303.146 123.056C303.878 123.569 304.537 124.594 305.123 126.131L310.393 139.967H309.24L314.786 125.088C315.152 124.1 315.646 123.386 316.268 122.947C316.927 122.471 317.751 122.233 318.739 122.233C319.801 122.233 320.642 122.471 321.265 122.947C321.887 123.422 322.381 124.136 322.747 125.088L328.292 139.967H327.304L332.63 125.802C333.142 124.411 333.801 123.477 334.607 123.002C335.412 122.489 336.272 122.233 337.187 122.233C338.432 122.233 339.383 122.526 340.042 123.111C340.701 123.697 341.067 124.466 341.14 125.417C341.25 126.369 341.067 127.394 340.591 128.492L333.179 146.446C332.667 147.727 331.953 148.679 331.038 149.301C330.123 149.923 329.043 150.234 327.798 150.234C326.517 150.234 325.419 149.923 324.504 149.301C323.626 148.679 322.912 147.727 322.363 146.446L316.323 131.347H320.331L314.621 146.336C314.109 147.654 313.413 148.642 312.535 149.301C311.656 149.923 310.576 150.234 309.295 150.234ZM355.437 150.344C353.827 150.344 352.18 150.216 350.496 149.96C348.849 149.74 347.348 149.319 345.994 148.697C345.079 148.331 344.42 147.837 344.017 147.215C343.651 146.592 343.468 145.933 343.468 145.238C343.505 144.543 343.706 143.92 344.072 143.371C344.475 142.786 344.987 142.383 345.609 142.163C346.268 141.907 347 141.925 347.806 142.218C349.343 142.767 350.716 143.17 351.923 143.426C353.168 143.646 354.358 143.756 355.492 143.756C356.847 143.756 357.817 143.573 358.402 143.206C358.988 142.804 359.281 142.291 359.281 141.669C359.281 141.12 359.079 140.699 358.677 140.406C358.311 140.114 357.78 139.912 357.084 139.802L350.99 138.814C348.721 138.411 346.964 137.588 345.719 136.343C344.475 135.062 343.852 133.397 343.852 131.347C343.852 129.444 344.383 127.815 345.445 126.461C346.543 125.07 348.025 124.008 349.892 123.276C351.795 122.507 353.973 122.123 356.426 122.123C358.073 122.123 359.574 122.251 360.928 122.507C362.282 122.727 363.6 123.148 364.881 123.77C365.686 124.1 366.254 124.575 366.583 125.198C366.912 125.82 367.041 126.479 366.967 127.174C366.894 127.833 366.656 128.455 366.254 129.041C365.888 129.59 365.375 129.974 364.716 130.194C364.057 130.377 363.289 130.322 362.41 130.029C361.202 129.553 360.123 129.206 359.171 128.986C358.256 128.767 357.396 128.657 356.59 128.657C355.09 128.657 354.028 128.858 353.406 129.261C352.784 129.663 352.472 130.176 352.472 130.798C352.472 131.274 352.637 131.676 352.967 132.006C353.296 132.299 353.809 132.5 354.504 132.61L360.598 133.653C362.941 134.019 364.735 134.824 365.979 136.069C367.26 137.277 367.901 138.924 367.901 141.01C367.901 143.975 366.766 146.281 364.497 147.928C362.227 149.539 359.207 150.344 355.437 150.344ZM377.844 149.74C376.123 149.74 374.806 149.301 373.891 148.422C373.012 147.507 372.573 146.208 372.573 144.524V116.248C372.573 114.564 373.012 113.283 373.891 112.405C374.806 111.49 376.123 111.032 377.844 111.032H396.456C397.774 111.032 398.762 111.362 399.421 112.021C400.08 112.679 400.41 113.631 400.41 114.876C400.41 116.157 400.08 117.145 399.421 117.84C398.762 118.499 397.774 118.829 396.456 118.829H382.236V126.186H395.249C396.53 126.186 397.5 126.515 398.158 127.174C398.854 127.833 399.202 128.803 399.202 130.084C399.202 131.365 398.854 132.335 398.158 132.994C397.5 133.653 396.53 133.982 395.249 133.982H382.236V141.944H396.456C397.774 141.944 398.762 142.291 399.421 142.987C400.08 143.646 400.41 144.597 400.41 145.842C400.41 147.123 400.08 148.093 399.421 148.752C398.762 149.411 397.774 149.74 396.456 149.74H377.844ZM410.471 150.234C408.934 150.234 407.744 149.813 406.903 148.972C406.061 148.13 405.64 146.903 405.64 145.293V127.119C405.64 125.545 406.042 124.338 406.848 123.496C407.689 122.654 408.879 122.233 410.416 122.233C411.954 122.233 413.125 122.654 413.93 123.496C414.736 124.338 415.138 125.545 415.138 127.119V129.7L414.534 127.449C415.413 125.728 416.657 124.411 418.268 123.496C419.915 122.581 421.782 122.123 423.868 122.123C426.028 122.123 427.803 122.544 429.194 123.386C430.585 124.191 431.628 125.472 432.323 127.229C433.019 128.95 433.367 131.127 433.367 133.763V145.293C433.367 146.903 432.946 148.13 432.104 148.972C431.262 149.813 430.054 150.234 428.48 150.234C426.906 150.234 425.698 149.813 424.856 148.972C424.015 148.13 423.594 146.903 423.594 145.293V134.147C423.594 132.5 423.301 131.329 422.715 130.633C422.166 129.938 421.342 129.59 420.244 129.59C418.78 129.59 417.609 130.066 416.73 131.018C415.852 131.933 415.413 133.177 415.413 134.751V145.293C415.413 148.587 413.766 150.234 410.471 150.234ZM452.718 150.344C449.68 150.344 447.026 149.777 444.756 148.642C442.524 147.507 440.785 145.879 439.54 143.756C438.296 141.596 437.674 139.07 437.674 136.179C437.674 133.982 438.021 132.024 438.717 130.304C439.412 128.547 440.419 127.064 441.737 125.857C443.091 124.649 444.683 123.734 446.513 123.111C448.38 122.452 450.448 122.123 452.718 122.123C453.779 122.123 454.895 122.233 456.067 122.452C457.238 122.635 458.446 123.002 459.691 123.551C460.569 123.88 461.173 124.392 461.502 125.088C461.868 125.747 462.015 126.461 461.942 127.229C461.905 127.998 461.685 128.693 461.283 129.316C460.917 129.938 460.386 130.359 459.691 130.578C459.032 130.798 458.281 130.706 457.439 130.304C456.854 130.011 456.232 129.81 455.573 129.7C454.95 129.553 454.346 129.48 453.761 129.48C452.772 129.48 451.894 129.627 451.125 129.92C450.393 130.212 449.771 130.652 449.259 131.237C448.746 131.786 448.344 132.482 448.051 133.324C447.794 134.165 447.666 135.117 447.666 136.179C447.666 138.302 448.197 139.967 449.259 141.175C450.32 142.383 451.821 142.987 453.761 142.987C454.346 142.987 454.95 142.932 455.573 142.822C456.195 142.676 456.817 142.456 457.439 142.163C458.281 141.761 459.032 141.687 459.691 141.944C460.349 142.163 460.88 142.584 461.283 143.206C461.685 143.829 461.905 144.524 461.942 145.293C461.978 146.025 461.814 146.739 461.447 147.434C461.081 148.093 460.459 148.587 459.581 148.917C458.373 149.466 457.183 149.832 456.012 150.015C454.877 150.234 453.779 150.344 452.718 150.344ZM478.666 150.344C475.665 150.344 473.048 149.777 470.815 148.642C468.582 147.507 466.843 145.879 465.599 143.756C464.354 141.633 463.732 139.125 463.732 136.234C463.732 134.037 464.08 132.079 464.775 130.359C465.471 128.602 466.477 127.119 467.795 125.911C469.113 124.667 470.687 123.734 472.517 123.111C474.347 122.452 476.397 122.123 478.666 122.123C481.668 122.123 484.285 122.69 486.518 123.825C488.75 124.96 490.471 126.589 491.679 128.712C492.923 130.798 493.545 133.305 493.545 136.234C493.545 138.393 493.198 140.351 492.502 142.108C491.807 143.865 490.8 145.366 489.482 146.611C488.201 147.819 486.627 148.752 484.761 149.411C482.93 150.033 480.899 150.344 478.666 150.344ZM478.666 143.152C479.654 143.152 480.533 142.914 481.302 142.438C482.07 141.925 482.656 141.175 483.059 140.187C483.498 139.162 483.717 137.844 483.717 136.234C483.717 133.781 483.242 132.024 482.29 130.963C481.338 129.865 480.13 129.316 478.666 129.316C477.678 129.316 476.799 129.553 476.031 130.029C475.262 130.505 474.658 131.256 474.219 132.28C473.78 133.269 473.56 134.586 473.56 136.234C473.56 138.649 474.036 140.406 474.988 141.504C475.939 142.603 477.165 143.152 478.666 143.152ZM508.565 150.344C506.259 150.344 504.209 149.777 502.416 148.642C500.659 147.507 499.268 145.879 498.243 143.756C497.255 141.633 496.761 139.125 496.761 136.234C496.761 133.269 497.255 130.743 498.243 128.657C499.268 126.57 500.659 124.96 502.416 123.825C504.209 122.69 506.259 122.123 508.565 122.123C510.578 122.123 512.39 122.599 514.001 123.551C515.611 124.502 516.691 125.728 517.24 127.229H516.636V115.48C516.636 113.869 517.057 112.643 517.899 111.801C518.741 110.959 519.949 110.538 521.523 110.538C523.06 110.538 524.25 110.959 525.092 111.801C525.97 112.643 526.409 113.869 526.409 115.48V145.293C526.409 146.903 525.988 148.13 525.147 148.972C524.341 149.813 523.152 150.234 521.578 150.234C520.04 150.234 518.851 149.813 518.009 148.972C517.167 148.13 516.746 146.903 516.746 145.293V142.163L517.35 144.854C516.838 146.501 515.758 147.837 514.111 148.862C512.5 149.85 510.652 150.344 508.565 150.344ZM511.695 143.152C512.683 143.152 513.562 142.914 514.33 142.438C515.099 141.925 515.685 141.175 516.087 140.187C516.526 139.162 516.746 137.844 516.746 136.234C516.746 133.781 516.27 132.024 515.319 130.963C514.367 129.865 513.159 129.316 511.695 129.316C510.707 129.316 509.828 129.553 509.059 130.029C508.291 130.505 507.687 131.256 507.248 132.28C506.808 133.269 506.589 134.586 506.589 136.234C506.589 138.649 507.065 140.406 508.016 141.504C508.968 142.603 510.194 143.152 511.695 143.152ZM546.785 150.344C543.491 150.344 540.636 149.777 538.22 148.642C535.841 147.471 534.011 145.824 532.73 143.701C531.449 141.578 530.808 139.07 530.808 136.179C530.808 133.397 531.412 130.963 532.62 128.876C533.865 126.753 535.548 125.106 537.671 123.935C539.831 122.727 542.283 122.123 545.029 122.123C547.042 122.123 548.872 122.452 550.519 123.111C552.166 123.734 553.575 124.667 554.747 125.911C555.918 127.119 556.796 128.583 557.382 130.304C558.004 132.024 558.316 133.946 558.316 136.069C558.316 136.801 558.114 137.35 557.712 137.716C557.309 138.045 556.668 138.21 555.79 138.21H538.989V133.598H551.178L550.299 134.312C550.299 132.958 550.116 131.859 549.75 131.018C549.384 130.176 548.835 129.535 548.103 129.096C547.408 128.657 546.529 128.437 545.468 128.437C544.333 128.437 543.345 128.712 542.503 129.261C541.698 129.773 541.075 130.542 540.636 131.567C540.197 132.592 539.977 133.873 539.977 135.41V135.904C539.977 138.503 540.545 140.37 541.679 141.504C542.851 142.603 544.644 143.152 547.06 143.152C547.865 143.152 548.78 143.06 549.805 142.877C550.867 142.657 551.873 142.365 552.825 141.999C553.777 141.633 554.6 141.578 555.296 141.834C555.991 142.053 556.522 142.456 556.888 143.042C557.291 143.591 557.51 144.231 557.547 144.963C557.583 145.659 557.419 146.354 557.053 147.05C556.687 147.709 556.083 148.221 555.241 148.587C553.96 149.173 552.587 149.612 551.123 149.905C549.695 150.198 548.25 150.344 546.785 150.344ZM573.068 150.344C570.762 150.344 568.712 149.777 566.918 148.642C565.161 147.507 563.771 145.879 562.746 143.756C561.757 141.633 561.263 139.125 561.263 136.234C561.263 133.269 561.757 130.743 562.746 128.657C563.771 126.57 565.161 124.96 566.918 123.825C568.712 122.69 570.762 122.123 573.068 122.123C575.081 122.123 576.893 122.599 578.503 123.551C580.114 124.502 581.194 125.728 581.743 127.229H581.139V115.48C581.139 113.869 581.56 112.643 582.402 111.801C583.243 110.959 584.451 110.538 586.025 110.538C587.563 110.538 588.752 110.959 589.594 111.801C590.473 112.643 590.912 113.869 590.912 115.48V145.293C590.912 146.903 590.491 148.13 589.649 148.972C588.844 149.813 587.654 150.234 586.08 150.234C584.543 150.234 583.353 149.813 582.511 148.972C581.67 148.13 581.249 146.903 581.249 145.293V142.163L581.853 144.854C581.34 146.501 580.26 147.837 578.613 148.862C577.003 149.85 575.154 150.344 573.068 150.344ZM576.197 143.152C577.186 143.152 578.064 142.914 578.833 142.438C579.601 141.925 580.187 141.175 580.59 140.187C581.029 139.162 581.249 137.844 581.249 136.234C581.249 133.781 580.773 132.024 579.821 130.963C578.869 129.865 577.661 129.316 576.197 129.316C575.209 129.316 574.331 129.553 573.562 130.029C572.793 130.505 572.189 131.256 571.75 132.28C571.311 133.269 571.091 134.586 571.091 136.234C571.091 138.649 571.567 140.406 572.519 141.504C573.47 142.603 574.697 143.152 576.197 143.152Z" fill="#291D89"/>
<path d="M39.6637 101.12L4.24951 123.542L39.6637 138.176" stroke="#291D89" stroke-width="3.70912" stroke-miterlimit="10"/>
<path d="M654.316 113.276L689.73 135.698L654.316 150.331" stroke="#291D89" stroke-width="3.70912" stroke-miterlimit="10"/>
<path d="M648.414 93.3906L625.69 170.511" stroke="#291D89" stroke-width="3.70912" stroke-miterlimit="10"/>
</g>
<defs>
<clipPath id="clip0_316_940">
<rect width="694" height="159" fill="white" transform="translate(0 43)"/>
</clipPath>
</defs>
</svg>
