<svg width="257" height="257" viewBox="0 0 257 257" fill="none" xmlns="http://www.w3.org/2000/svg">
<rect width="257" height="257" rx="20" fill="url(#paint0_linear_360_926)" fill-opacity="0.96"/>
<path d="M127.753 64.3246L126.791 186.136M126.791 186.136L65.9936 197.867L71.7013 48.2055L170.176 76.5143L186.369 80.9026M126.791 186.136L180.5 176.5" stroke="white" stroke-width="5" stroke-miterlimit="10" stroke-linecap="round" stroke-linejoin="round"/>
<path d="M70.5 121.5L182.192 129.156" stroke="white" stroke-width="5" stroke-miterlimit="10" stroke-linecap="round" stroke-linejoin="round"/>
<path d="M115.5 45L188.998 38.1956L179.09 217.89" stroke="white" stroke-width="5" stroke-miterlimit="10" stroke-linecap="round" stroke-linejoin="round"/>
<path d="M187.267 66.4184L171.907 62.1735L54.3856 27.4399L47.0746 219.407L120.185 200.792L179 218.5" stroke="white" stroke-width="5" stroke-miterlimit="10" stroke-linecap="round" stroke-linejoin="round"/>
<path d="M196 240L93.8909 212.15L85.8103 209.54" stroke="white" stroke-width="5" stroke-miterlimit="10" stroke-linecap="round" stroke-linejoin="round"/>
<path d="M68.8472 31.7135L105.274 27.2678L211.925 15.1928L196.203 239.764" stroke="white" stroke-width="5" stroke-miterlimit="10" stroke-linecap="round" stroke-linejoin="round"/>
<defs>
<linearGradient id="paint0_linear_360_926" x1="297" y1="-14.5" x2="13.5" y2="237.5" gradientUnits="userSpaceOnUse">
<stop stop-color="#FF8CA3"/>
<stop offset="1" stop-color="#7083F1"/>
</linearGradient>
</defs>
</svg>
