<svg width="30" height="30" viewBox="0 0 30 30" fill="none" xmlns="http://www.w3.org/2000/svg">
<path d="M19.125 23.8751L19.4413 22.9264C19.132 22.8233 18.7919 22.8774 18.5299 23.0714L19.125 23.8751ZM26.25 26.2501L25.9338 27.1987C26.2931 27.3185 26.6893 27.225 26.9571 26.9572C27.225 26.6893 27.3185 26.2932 27.1987 25.9338L26.25 26.2501ZM23.875 19.1251L23.0528 18.5559C22.8737 18.8147 22.8268 19.1427 22.9263 19.4413L23.875 19.1251ZM18.8088 24.8237L25.9338 27.1987L26.5663 25.3014L19.4413 22.9264L18.8088 24.8237ZM27.1987 25.9338L24.8237 18.8088L22.9263 19.4413L25.3014 26.5663L27.1987 25.9338ZM14.375 24C9.05926 24 4.75 19.6907 4.75 14.375H2.75C2.75 20.7953 7.95469 26 14.375 26V24ZM4.75 14.375C4.75 9.05926 9.05926 4.75 14.375 4.75V2.75C7.95469 2.75 2.75 7.95469 2.75 14.375H4.75ZM14.375 4.75C19.6907 4.75 24 9.05926 24 14.375H26C26 7.95469 20.7953 2.75 14.375 2.75V4.75ZM19.125 23.8751C18.5299 23.0714 18.5303 23.0711 18.5307 23.0708C18.5308 23.0707 18.5312 23.0705 18.5315 23.0703C18.5319 23.0699 18.5324 23.0696 18.5329 23.0693C18.5337 23.0686 18.5345 23.068 18.5353 23.0675C18.5367 23.0665 18.5377 23.0657 18.5384 23.0652C18.5399 23.0642 18.5399 23.0642 18.5384 23.0652C18.5356 23.0672 18.527 23.073 18.5127 23.0822C18.4841 23.1006 18.4324 23.1324 18.3575 23.1734C18.2076 23.2553 17.9641 23.3742 17.6238 23.4963C16.9451 23.7399 15.8718 24 14.375 24V26C16.1091 26 17.4107 25.6977 18.2994 25.3788C18.7427 25.2196 19.0809 25.0573 19.3169 24.9283C19.4348 24.8638 19.5271 24.8077 19.5942 24.7646C19.6277 24.743 19.655 24.7247 19.6759 24.7102C19.6864 24.703 19.6953 24.6967 19.7027 24.6914C19.7064 24.6887 19.7097 24.6864 19.7126 24.6843C19.714 24.6832 19.7154 24.6822 19.7167 24.6813C19.7173 24.6808 19.7179 24.6804 19.7185 24.6799C19.7188 24.6797 19.7192 24.6794 19.7193 24.6793C19.7197 24.679 19.7201 24.6787 19.125 23.8751ZM24 14.375C24 15.8152 23.7411 16.8904 23.4945 17.5891C23.371 17.9392 23.25 18.1961 23.1651 18.358C23.1227 18.439 23.0893 18.4961 23.0692 18.5292C23.0591 18.5458 23.0523 18.5563 23.0494 18.5607C23.048 18.563 23.0475 18.5637 23.048 18.5629C23.0483 18.5625 23.0488 18.5617 23.0496 18.5605C23.05 18.5599 23.0505 18.5593 23.051 18.5585C23.0513 18.5581 23.0516 18.5577 23.0519 18.5572C23.052 18.557 23.0523 18.5567 23.0523 18.5566C23.0526 18.5562 23.0528 18.5559 23.875 19.1251C24.6972 19.6942 24.6975 19.6939 24.6978 19.6935C24.6978 19.6934 24.6981 19.693 24.6983 19.6927C24.6987 19.6922 24.699 19.6916 24.6994 19.691C24.7003 19.6899 24.7011 19.6886 24.7021 19.6872C24.7039 19.6845 24.7061 19.6813 24.7085 19.6777C24.7133 19.6706 24.7191 19.6618 24.7259 19.6514C24.7395 19.6305 24.7569 19.603 24.7776 19.5691C24.819 19.5011 24.8735 19.4068 24.9365 19.2866C25.0625 19.0462 25.2228 18.7015 25.3805 18.2547C25.6964 17.3597 26 16.0598 26 14.375H24Z" fill="#291D89"/>
</svg>
