<svg width="30" height="30" viewBox="0 0 30 30" fill="none" xmlns="http://www.w3.org/2000/svg">
<path d="M15 3.75L15.6585 2.99742C15.2815 2.66753 14.7185 2.66753 14.3415 2.99742L15 3.75ZM5 12.5L4.3415 11.7474C4.12448 11.9373 4 12.2116 4 12.5L5 12.5ZM25 12.5L26 12.5C26 12.2116 25.8755 11.9373 25.6585 11.7474L25 12.5ZM25 25V26C25.2652 26 25.5196 25.8946 25.7071 25.7071C25.8946 25.5196 26 25.2652 26 25L25 25ZM18.75 25H17.75C17.75 25.5523 18.1977 26 18.75 26V25ZM17.6517 17.3483L18.3588 16.6412L18.3588 16.6412L17.6517 17.3483ZM11.25 25V26C11.8023 26 12.25 25.5523 12.25 25H11.25ZM5.00001 25L4.00001 25C4.00001 25.5523 4.44772 26 5.00001 26V25ZM14.3415 2.99742L4.3415 11.7474L5.6585 13.2526L15.6585 4.50258L14.3415 2.99742ZM25.6585 11.7474L15.6585 2.99742L14.3415 4.50258L24.3415 13.2526L25.6585 11.7474ZM24 12.5L24 25L26 25L26 12.5L24 12.5ZM25 24H18.75V26H25V24ZM19.75 25V20H17.75V25H19.75ZM19.75 20C19.75 18.7402 19.2496 17.532 18.3588 16.6412L16.9445 18.0555C17.4603 18.5712 17.75 19.2707 17.75 20H19.75ZM18.3588 16.6412C17.468 15.7504 16.2598 15.25 15 15.25V17.25C15.7294 17.25 16.4288 17.5397 16.9446 18.0555L18.3588 16.6412ZM15 15.25C13.7402 15.25 12.532 15.7504 11.6412 16.6412L13.0555 18.0555C13.5712 17.5397 14.2707 17.25 15 17.25V15.25ZM11.6412 16.6412C10.7505 17.532 10.25 18.7402 10.25 20H12.25C12.25 19.2707 12.5397 18.5712 13.0555 18.0555L11.6412 16.6412ZM10.25 20V25H12.25V20H10.25ZM11.25 24H5.00001V26H11.25V24ZM6.00001 25L6 12.5L4 12.5L4.00001 25L6.00001 25Z" fill="#291D89"/>
</svg>
