<svg width="30" height="30" viewBox="0 0 30 30" fill="none" xmlns="http://www.w3.org/2000/svg">
<path d="M5 25H4.25C4.25 25.4142 4.58579 25.75 5 25.75V25ZM5 20L4.46967 19.4697C4.32902 19.6103 4.25 19.8011 4.25 20H5ZM21.25 3.75L21.7803 3.21967C21.4874 2.92678 21.0126 2.92678 20.7197 3.21967L21.25 3.75ZM26.25 8.75L26.7803 9.28033C27.0732 8.98744 27.0732 8.51256 26.7803 8.21967L26.25 8.75ZM10 25V25.75C10.1989 25.75 10.3897 25.671 10.5303 25.5303L10 25ZM5.75 25V20H4.25V25H5.75ZM20.7197 4.28033L25.7197 9.28033L26.7803 8.21967L21.7803 3.21967L20.7197 4.28033ZM10 24.25H5V25.75H10V24.25ZM25.7197 8.21967L21.9697 11.9697L23.0303 13.0303L26.7803 9.28033L25.7197 8.21967ZM21.9697 11.9697L9.46967 24.4697L10.5303 25.5303L23.0303 13.0303L21.9697 11.9697ZM5.53033 20.5303L18.0303 8.03033L16.9697 6.96967L4.46967 19.4697L5.53033 20.5303ZM18.0303 8.03033L21.7803 4.28033L20.7197 3.21967L16.9697 6.96967L18.0303 8.03033ZM23.0303 11.9697L18.0303 6.96967L16.9697 8.03033L21.9697 13.0303L23.0303 11.9697Z" fill="white"/>
</svg>
