<svg width="50" height="50" viewBox="0 0 50 50" fill="none" xmlns="http://www.w3.org/2000/svg">
<path d="M41.6667 43.75V44.75C42.219 44.75 42.6667 44.3023 42.6667 43.75H41.6667ZM8.33337 43.75H7.33337C7.33337 44.3023 7.78109 44.75 8.33337 44.75V43.75ZM16.6667 32.25H33.3334V30.25H16.6667V32.25ZM40.6667 39.5833V43.75H42.6667V39.5833H40.6667ZM9.33337 43.75V39.5833H7.33337V43.75H9.33337ZM33.3334 32.25C37.3835 32.25 40.6667 35.5332 40.6667 39.5833H42.6667C42.6667 34.4287 38.488 30.25 33.3334 30.25V32.25ZM16.6667 30.25C11.5121 30.25 7.33337 34.4287 7.33337 39.5833H9.33337C9.33337 35.5332 12.6166 32.25 16.6667 32.25V30.25ZM32.3334 14.5833C32.3334 18.6334 29.0501 21.9167 25 21.9167V23.9167C30.1547 23.9167 34.3334 19.738 34.3334 14.5833H32.3334ZM25 21.9167C20.95 21.9167 17.6667 18.6334 17.6667 14.5833H15.6667C15.6667 19.738 19.8454 23.9167 25 23.9167V21.9167ZM17.6667 14.5833C17.6667 10.5332 20.95 7.25 25 7.25V5.25C19.8454 5.25 15.6667 9.42868 15.6667 14.5833H17.6667ZM25 7.25C29.0501 7.25 32.3334 10.5332 32.3334 14.5833H34.3334C34.3334 9.42868 30.1547 5.25 25 5.25V7.25ZM8.33337 44.75H41.6667V42.75H8.33337V44.75Z" fill="#291D89"/>
</svg>
